# xmcd
#
# Track frame offsets: 
#        150
#        13320
#        27309
#        41566
#        56728
#        73361
#        89336
#        103413
#        118336
#        134527
#        149762
#        164696
#        178853
#
# Disc length: 2531 seconds
#
# Revision: 9
# Processed by: cddbd v1.5.2PL0 Copyright (c) Steve Scherf et al.
# Submitted via: ExactAudioCopyFreeDBPlugin 1.0
#
DISCID=d809e10d
DTITLE=George Strait - Twang
DYEAR=2009
DGENRE=Country
TTITLE0=Twang
TTITLE1=Where Have I Been All My Life
TTITLE2=I Gotta Get To You
TTITLE3=Easy As You Go
TTITLE4=Living For The Night
TTITLE5=Same Kind Of Crazy
TTITLE6=Out Of Sight Out Of Mind
TTITLE7=Arkansas Dave
TTITLE8=The Breath You Take
TTITLE9=He's Got That Something Special
TTITLE10=Hot Grease And Zydeco
TTITLE11=Beautiful Day For Goodbye
TTITLE12=El Rey
EXTD=
EXTT0=
EXTT1=
EXTT2=
EXTT3=
EXTT4=
EXTT5=
EXTT6=
EXTT7=
EXTT8=
EXTT9=
EXTT10=
EXTT11=
EXTT12=
PLAYORDER=
